<?xml version="1.0" encoding="utf-8"?>
<!-- Svg Vector Icons : http://www.onlinewebfonts.com/icon -->
<!DOCTYPE svg PUBLIC "-//W3C//DTD SVG 1.1//EN" "http://www.w3.org/Graphics/SVG/1.1/DTD/svg11.dtd">
<svg version="1.1"
  xmlns="http://www.w3.org/2000/svg"
  xmlns:xlink="http://www.w3.org/1999/xlink" x="0px" y="0px" viewBox="0 0 1000 1000" enable-background="new 0 0 1000 1000" xml:space="preserve">
  <metadata> Svg Vector Icons : http://www.onlinewebfonts.com/icon </metadata>
  <g>
    <g transform="translate(0.000000,512.000000) scale(0.100000,-0.100000)">
      <circle cx="5000" cy="0" r="4000" fill="#dd4444" />
      <path d="M4581.1,4987.5c-86.5-42.3-153.7-128.7-180.6-228.7c-17.3-65.3-32.7-84.6-63.4-84.6c-21.1,0-138.4-21.1-259.4-46.1l-221-46.1l-67.3,75c-73,80.7-176.8,132.6-269,132.6c-65.3,0-614.9-215.2-695.6-272.9c-82.6-57.6-130.7-169.1-130.7-299.8v-115.3l-128.7-78.8c-73-44.2-178.7-115.3-238.3-157.6l-107.6-76.9l-82.6,42.3c-101.8,53.8-232.5,55.7-326.7,7.7c-96.1-50-493.8-449.6-528.4-534.2c-40.4-98-36.5-230.6,9.6-322.8l40.4-76.9L1176.1,2670l-157.6-234.4l-109.5-1.9c-132.6,0-244-51.9-301.7-138.3c-23.1-34.6-92.2-184.5-153.7-334.4c-151.8-378.5-148-505.4,23.1-645.6l69.2-57.7l-38.4-188.3c-21.1-105.7-44.2-222.9-50-261.3c-9.6-55.7-23.1-73-51.9-73c-50,0-171-61.5-213.3-109.5C113.5,539,100,460.2,100,116.3c0-282.5,5.8-343.9,36.5-411.2c44.2-96.1,146-178.7,240.2-194.1c51.9-7.7,71.1-21.1,76.9-51.9c3.8-21.2,26.9-138.4,50-257.5l44.2-219.1l-71.1-57.6c-171-140.3-176.8-280.5-25-641.8c144.1-342,157.6-365.1,247.9-426.6c69.2-44.2,98-51.9,211.4-50c71.1,1.9,130.7-3.8,130.7-11.5c0-7.7,65.3-113.4,146-232.5l146-219.1l-40.4-82.6c-48-96.1-51.9-226.7-11.5-324.7c36.5-86.5,393.9-453.5,507.3-520.7c111.5-65.3,240.2-67.2,351.7-7.7l82.6,46.1l240.2-161.4l240.2-159.5l-5.8-109.5c-5.8-126.8,40.3-238.3,126.8-299.8c86.5-63.4,626.4-272.9,697.5-272.9c94.2,1.9,213.3,61.5,280.6,142.2l57.6,71.1l190.2-38.4c105.7-21.1,221-42.3,257.5-48c61.5-11.5,71.1-21.1,92.2-96.1c26.9-101.8,96.1-188.3,184.5-230.6c96.1-44.2,734-44.2,830.1,0c88.4,42.3,157.6,128.8,182.5,230.6c19.2,76.9,28.8,84.6,92.2,94.2c38.4,7.7,153.7,28.8,259.4,50l190.2,38.4l57.6-71.1c67.3-80.7,186.4-140.3,278.6-142.2c78.8,0,622.6,215.2,709.1,280.5c76.9,57.6,124.9,184.5,117.2,305.5l-5.8,96.1l240.2,159.5l238.3,159.5l78.8-42.3c109.5-63.4,244-59.6,355.5,5.8c115.3,67.3,472.7,434.3,509.2,520.7c40.4,98,36.5,228.7-11.5,324.7l-40.4,82.6l157.6,236.3l159.5,236.4l71.1-11.5c96.1-15.4,205.6,15.4,284.4,80.7c48,40.3,90.3,121.1,178.7,332.4c138.4,330.5,153.7,401.6,121.1,530.4c-17.3,71.1-44.2,111.5-103.8,165.3l-80.7,73l42.3,215.2c23.1,119.1,46.1,236.3,50,257.5c5.8,30.7,25,44.2,76.9,51.9c94.2,15.4,196,98,240.2,194.1c30.8,67.3,36.5,128.8,36.5,411.2c0,344-13.5,422.7-92.2,509.2c-42.3,48-163.3,109.5-213.3,109.5c-28.8,0-42.3,17.3-51.9,73c-5.8,38.4-28.8,155.7-50,261.3l-38.4,188.3l69.2,57.7c169.1,138.3,172.9,267.1,21.1,645.6c-61.5,149.9-128.8,299.8-151.8,334.4c-59.6,86.5-171,138.3-303.6,140.3h-109.5l-155.6,232.5l-153.7,234.4l38.4,82.6c44.2,99.9,50,224.8,11.5,311.3c-13.4,34.6-138.3,171-272.8,305.5c-196,192.2-265.2,246-326.7,263.3c-94.2,25-186.4,11.5-270.9-40.4l-61.5-36.5l-242.1,159.5l-240.2,159.5v105.7c-1.9,128.8-51.9,247.9-126.8,301.7c-88.4,61.5-634.1,274.8-703.3,274.8c-90.3-1.9-211.4-61.5-276.7-138.4l-55.7-67.3l-221,44.2c-121.1,25-240.2,46.1-261.3,46.1c-32.7,0-46.1,17.3-63.4,84.6c-25,101.8-94.1,188.3-182.5,230.6C5319,5033.6,4673.3,5033.6,4581.1,4987.5z M5442,3456c778.2-103.8,1446.9-445.8,2000.3-1024.2c430.4-449.6,728.3-1020.3,862.8-1648.7c59.6-274.8,75-841.6,30.7-1135.6c-163.3-1112.6-868.5-2069.5-1881.2-2553.8c-924.3-443.9-1983.1-443.9-2905.4,0c-1174.1,563-1913.9,1739-1912,3036.1c3.8,1691,1266.3,3114.9,2959.2,3332C4796.3,3488.6,5222.9,3484.8,5442,3456z"/>
      <path d="M4721.4,3183.1c-468.9-67.3-759-151.8-1078-311.3c-317.1-159.5-532.3-315.1-797.5-580.3c-445.8-445.8-709.1-930-847.4-1564.2c-36.5-165.3-42.3-253.7-42.3-597.6c-1.9-351.6,3.8-430.4,44.2-613c234.4-1104.9,1014.6-1981.2,2058-2313.6c397.8-126.8,805.1-174.9,1176-140.3c455.4,42.3,739.8,123,1139.5,319c707.1,347.8,1274,1001.1,1527.6,1754.4c107.6,324.8,138.3,499.6,148,897.4c7.7,313.2,3.8,397.8-30.8,603.4c-215.2,1264.4-1170.2,2246.3-2432.7,2500C5401.6,3175.4,4861.6,3204.2,4721.4,3183.1z M4584.9,2218.5c92.2-324.8,192.2-638,221-695.6c59.6-119.1,159.5-199.8,221-180.6c61.5,15.4,157.5,132.6,201.8,244c34.6,88.4,270.9,895.5,328.6,1131.8c23.1,86.5,26.9,90.3,75,80.7c144.1-32.7,459.2-149.9,609.1-226.7c282.5-142.2,288.2-61.5-46.1-661c-349.7-626.4-407.4-776.3-347.8-893.5c32.7-59.6,53.8-71.1,144.1-71.1c126.8,0,228.7,46.1,789.8,357.4l532.3,297.8l34.6-44.2c113.4-149.9,372.8-803.2,330.5-839.7c-9.6-7.7-267.1-86.5-574.6-172.9c-305.5-86.5-607.2-180.6-668.7-207.5c-186.4-84.5-253.7-209.4-169.1-317.1c69.2-86.5,224.8-147.9,809-313.2c322.8-92.2,591.8-172.9,601.4-180.6c40.4-38.4-222.9-709.1-336.3-853.2c-23.1-32.7-55.7-17.3-476.5,219.1c-657.2,368.9-753.3,411.2-918.5,403.5c-65.3-3.8-119.1-69.2-119.1-146c0-126.8,76.9-297.8,368.9-820.5c276.7-493.8,288.2-520.7,253.7-547.6c-132.6-96.1-659.1-313.2-814.7-336.3c-55.7-7.7-44.2-42.3-242.1,666.8c-144.1,518.8-203.7,668.7-294,745.6c-76.9,65.3-117.2,65.3-192.1,3.8c-92.2-78.8-144.1-213.3-309.4-797.5c-86.5-301.7-159.5-563-165.3-580.3c-15.4-48-74.9-44.2-280.6,25c-172.9,57.7-526.5,219.1-597.6,274.8c-34.6,26.9-19.2,57.6,255.6,547.6c295.9,528.4,365.1,684.1,365.1,807.1c0,111.4-42.3,155.6-151.8,155.6c-142.2,0-234.4-40.4-803.2-357.4c-292.1-163.3-534.2-295.9-536.1-295.9c-13.4,0-157.6,276.7-221,422.7C2379-744.6,2304-492.9,2325.2-473.6c7.7,7.7,265.2,84.5,570.7,171c607.2,171,755.2,226.7,826.3,311.3c74.9,88.4,65.3,171-28.8,251.7c-101.8,86.5-146,101.9-812.8,292.1L2319.4,712l5.8,55.7c11.5,96.1,121.1,393.9,215.2,582.2c149.9,295.9,67.3,299.8,670.6-38.4c547.7-305.5,680.2-365.1,809-365.1c146,0,188.3,107.6,124.9,319c-15.4,51.9-161.4,336.3-326.7,632.2c-267.1,480.4-295.9,540-267.1,561.1c53.8,40.3,319,172.9,430.4,217.1c92.2,36.5,392,130.7,424.7,132.6C4413.9,2810.3,4494.6,2545.1,4584.9,2218.5z"/>
      <path d="M4836.7,710c-180.6-61.5-324.7-186.4-395.8-349.7c-53.8-123-57.6-307.5-9.6-451.6c50-146,211.4-307.5,357.4-357.4c140.3-48,328.6-44.2,447.7,7.7c124.9,55.7,269,197.9,322.8,317.1c98,219.1,44.2,505.4-126.8,676.4C5286.3,698.5,5017.3,769.6,4836.7,710z"/>
    </g>
  </g>
</svg>
